Coordinates
version=1
nRows=17
nColumns=36
inDegrees=yes

Units are S.I. units (second, meters, Newtons, ...)
If the header above contains a line with 'inDegrees', this indicates whether rotational values are in degrees (yes) or radians (no).

endheader
time	pelvis_tilt	pelvis_list	pelvis_rotation	pelvis_tx	pelvis_ty	pelvis_tz	hip_flexion_r	hip_adduction_r	hip_rotation_r	knee_angle_r	knee_angle_r_beta	ankle_angle_r	subtalar_angle_r	mtp_angle_r	hip_flexion_l	hip_adduction_l	hip_rotation_l	knee_angle_l	knee_angle_l_beta	ankle_angle_l	subtalar_angle_l	mtp_angle_l	lumbar_extension	lumbar_bending	lumbar_rotation	arm_flex_r	arm_add_r	arm_rot_r	elbow_flex_r	pro_sup_r	arm_flex_l	arm_add_l	arm_rot_l	elbow_flex_l	pro_sup_l
      2.61666670	    -16.77244937	      3.01457704	     -2.12523954	      0.64338739	      0.65294361	      0.11259517	     78.79527345	     -9.56759562	      5.68453767	     98.78884063	      1.72419053	     31.02332890	    -14.31131467	     -7.49999987	     77.38316816	     -8.36949300	      5.85763505	     98.57139377	      1.72039537	     30.83798082	    -18.32730975	     -7.49999987	    -35.95353935	      4.54055317	      3.15356237	     42.76257916	    -18.58865895	     11.18492733	     88.97339841	     94.06860560	     36.14374004	    -25.29580797	     -5.11976477	     84.36628978	     81.95073637
      2.63333330	    -19.21994738	      3.03258239	     -2.48335444	      0.67337300	      0.64147040	      0.09679414	     82.24098017	    -10.07301091	      6.19963405	    101.26357595	      1.76738281	     32.02654897	    -14.29708088	     -7.49999987	     80.33384621	     -7.91348950	      6.47009387	    101.22695424	      1.76674364	     32.21505530	    -18.33868344	     -7.49999987	    -37.31309976	      4.91400129	      2.69254660	     46.24729583	    -17.34031147	     14.20334574	     91.66269010	     96.45033281	     37.46553276	    -22.55444876	     -4.44256474	     86.85570587	     83.12235856
      2.65000000	    -22.38080548	      2.86760956	     -2.33143833	      0.63964279	      0.62023232	      0.11105181	     87.28863124	    -10.17228940	      6.19986388	    103.30375854	      1.80299072	     32.64432615	    -14.49809905	     -7.49999987	     85.50448048	     -8.04432668	      7.27390653	    103.48000790	      1.80606685	     32.87319324	    -17.98567358	     -7.49999987	    -38.60099086	      4.56849987	      1.86180586	     54.18501453	    -15.32384568	     18.75571784	     91.68592508	     98.68907004	     42.30258988	    -24.66778356	     -0.08080677	     89.73283407	     84.14185749
      2.66666670	    -25.77964560	      2.55113674	     -2.40181918	      0.64173247	      0.61681013	      0.10593913	     92.01796959	    -10.19808613	      5.62075989	    104.08155215	      1.81656578	     32.87978442	    -14.34049111	     -7.49999987	     90.07383236	     -8.35499252	      7.85163235	    104.37649087	      1.82171343	     33.11875409	    -17.50819499	     -7.49999987	    -39.86977083	      4.23871130	      1.28016048	     59.71667066	    -13.79928226	     21.58918793	     91.14840403	     99.26591886	     46.17900979	    -25.26418832	      3.26031095	     90.68240124	     84.40249510
      2.68333330	    -28.76127278	      2.19510492	     -2.13758979	      0.60197177	      0.60113018	      0.09900062	     97.19061660	    -10.93502515	      5.00191742	    104.57848076	      1.82523882	     32.53474754	    -13.68776284	     -7.49999987	     95.75168926	     -8.43244060	      8.05273832	    105.11016595	      1.83451847	     30.92117684	    -17.99785613	     -7.49999987	    -41.64225353	      4.89704096	      0.79471997	     68.95580411	    -13.05456990	     24.77607055	     88.10294265	    100.54041927	     54.24820486	    -27.38603269	      8.50185704	     90.83159108	     84.96962823
      2.70000000	    -31.29930092	      2.17850119	     -2.19360979	      0.61263763	      0.60223538	      0.10352841	    101.29724653	    -11.36324452	      4.51793303	    104.64583642	      1.82641439	     32.29840911	    -12.79601695	     -7.49999987	     99.73283921	     -8.66021926	      7.89113560	    105.16541348	      1.83548272	     29.76679300	    -17.22224751	     -7.49999987	    -43.69049426	      4.89623956	      0.60340583	     74.70946390	    -11.73132228	     23.88355246	     88.51396601	    100.60410581	     58.75408259	    -27.27055967	      8.32636973	     90.53544256	     84.95883707
      2.71666670	    -33.23385809	      1.86572074	     -2.84356621	      0.61850809	      0.58878461	      0.09927029	    104.30892296	    -11.69355849	      3.72205564	    104.95091728	      1.83173906	     32.73837273	    -11.01261345	     -7.49999987	    103.10434890	     -9.20925932	      8.46517624	    105.69983463	      1.84481013	     28.04936530	    -17.55808353	     -7.49999987	    -44.88989859	      4.92421587	      0.77782567	     78.10882545	    -11.69498385	     25.56493530	     87.44732624	     97.79484935	     60.52734022	    -28.56387641	     10.30507037	     88.72558539	     83.39197695
      2.73333330	    -35.11937989	      1.60147656	     -3.11017553	      0.61696990	      0.58616549	      0.10325900	    106.84725646	    -12.12223945	      3.00569119	    104.86627827	      1.83026183	     32.77285763	     -9.79028132	     -7.49999987	    105.78264824	     -9.61800401	      8.74705337	    105.69965799	      1.84480705	     26.94898506	    -17.61427631	     -7.49999987	    -46.19392313	      4.77202084	      0.59406939	     81.19658149	    -11.67923349	     26.13003183	     86.30891474	     99.43691166	     62.39617410	    -30.24753565	     11.92512011	     86.64282032	     83.65319850
      2.75000000	    -36.71090158	      1.61934612	     -3.52818619	      0.63729604	      0.58921954	      0.09609224	    108.09772014	    -12.14051208	      2.74132390	    104.67909606	      1.82699488	     33.00342893	     -9.09195326	     -7.49999987	    106.83254225	     -9.90675672	      8.73493987	    105.45181556	      1.84048138	     27.02617299	    -17.26689615	     -7.49999987	    -47.39841380	      4.34569089	      0.74456749	     79.96643168	    -13.19910555	     24.94077330	     85.17680032	     99.72018933	     61.27828329	    -28.65988214	      9.09012317	     83.95623264	     83.49320322
      2.76666670	    -37.94790224	      1.35820683	     -3.81114249	      0.62033698	      0.59043254	      0.09773381	    108.55937785	    -11.74975171	      2.31610819	    103.85858131	      1.81267420	     32.86762309	     -9.08157172	     -7.49999987	    107.59166947	    -10.04754755	      8.80396556	    104.58411069	      1.82533708	     26.35394763	    -17.97636039	     -7.49999987	    -48.73157900	      4.05418806	      1.30306524	     82.32149306	    -13.91827095	     23.38656405	     81.35462715	    100.00173288	     63.20076770	    -28.33613295	      9.15801831	     79.64250611	     83.49800833
      2.78333330	    -38.84512834	      1.35806792	     -4.48816484	      0.64458828	      0.58976079	      0.11005743	    108.27464162	    -10.62287403	      2.03998171	    103.21995270	      1.80152803	     33.53919130	     -8.77651323	     -7.49999987	    107.70885157	    -10.80265035	      8.99527935	    103.94321375	      1.81415132	     26.66568731	    -17.95504102	     -7.49999987	    -49.58123094	      2.94966678	      1.17438125	     80.38397746	    -14.64104491	     21.60981173	     79.22000086	     99.54668826	     61.32553463	    -28.62573811	      7.65429479	     74.48233448	     82.99788227
      2.80000000	    -39.12921556	      1.27485880	     -4.80107979	      0.64932626	      0.59380724	      0.11250979	    107.26813376	     -9.72812233	      1.91614963	    102.83253835	      1.79476637	     33.87592948	     -9.06465808	     -7.49999987	    106.79760661	    -11.26480050	      8.96744569	    103.16474901	      1.80056454	     27.19539112	    -18.19142251	     -7.49999987	    -50.67871091	      2.01144965	      1.35457586	     78.89012365	    -15.48674338	     18.66595268	     75.50423221	     97.10881231	     61.29553228	    -27.72887897	      6.30841330	     68.80224098	     80.56053380
      2.81666670	    -40.23679998	      1.22286802	     -4.70327441	      0.61958497	      0.59509976	      0.10160445	    107.78127304	     -9.41260450	      1.77539563	    102.08957923	      1.78179929	     33.63692239	     -9.22596834	     -7.49999987	    107.63175788	    -11.53428729	      8.56459193	    102.38214252	      1.78690548	     26.10483307	    -19.04749638	     -7.49999987	    -50.96841764	      1.68364951	      1.58201682	     79.60973062	    -18.30503556	     17.45762076	     70.12740081	     96.91341534	     63.12257274	    -26.85194285	      6.76016423	     64.33956826	     80.12451711
      2.83333330	    -38.84632587	      1.06163356	     -5.22019100	      0.69879151	      0.59853702	      0.14658268	    104.59464316	     -7.60741104	      1.92408214	    103.01384521	      1.79793077	     35.00533441	     -8.71658732	     -7.49999987	    104.53716936	    -12.51267357	      9.20492988	    102.68382186	      1.79217078	     28.98395498	    -17.00396185	     -7.49999987	    -53.10024729	     -0.75721989	     -0.05006996	     68.19503291	    -16.42382045	     11.15593981	     70.81299766	     94.14434386	     55.62140133	    -26.46886164	     -1.27226332	     56.42142524	     77.58448857
      2.85000000	    -36.82335998	      0.80988765	     -5.78655647	      0.70128010	      0.60168171	      0.14319180	    101.07581590	     -5.83709288	      2.20988380	    104.03530531	      1.81575862	     36.19414901	     -8.42161754	     -7.49999987	    101.11496624	    -13.75595954	      9.85049447	    103.01446479	      1.79794159	     32.62450157	    -14.51577586	     -7.49999987	    -55.22011917	     -3.27686861	     -1.44815951	     60.48644060	    -15.56412308	      5.14194536	     65.82386638	     90.01353272	     51.15668449	    -26.17223777	     -5.48250121	     50.31795722	     74.79332026
      2.86666670	    -36.75439161	      0.09417077	     -5.41666421	      0.66155707	      0.61982453	      0.14922382	     98.83976403	     -4.63607919	      1.58964922	    102.40406795	      1.78728815	     36.58607555	     -9.52036588	     -7.49999987	     99.97362162	    -14.76632607	     10.11860085	    101.56592496	      1.77265980	     32.67673896	    -13.76431240	     -7.49999987	    -55.60129328	     -4.44035048	     -1.66309801	     58.47333658	    -15.14888001	      0.64666989	     58.53209658	     89.57208673	     52.17469420	    -26.58142560	     -4.89764211	     44.12581032	     74.24410749
      2.88333330	    -36.71760220	     -0.26315913	     -5.19325122	      0.66389410	      0.63729039	      0.12491225	     96.61367079	     -4.15715003	      1.17903492	     99.80796464	      1.74197760	     36.77425814	    -10.24090465	     -7.49999987	     98.50790063	    -15.32224231	      9.37626398	     99.49303916	      1.73648112	     31.53217052	    -13.64826726	     -7.49999987	    -56.20661311	     -4.73796015	     -1.27245726	     55.45702019	    -17.13272748	     -1.25543806	     52.74795730	     86.28971475	     50.06539472	    -23.95519824	     -6.86997429	     39.71539194	     71.69751178
